# xmcd CD database file
#
# Track frame offsets:
#	150
#	20310
#	48125
#	79715
#	101833
#	123133
#	144675
#	163008
#	189718
#	207965
#
# Disc length: 2875 seconds
#
# Revision: 0
# Processed by: cddbd v1.5.1PL0 Copyright (c) Steve Scherf et al.
# Submitted via: CDex 1.51
#
DISCID=810b390a
DTITLE=SPORTS - Funny!!!
DYEAR=2004
DGENRE=JPop
TTITLE0=Super Sonic
TTITLE1=Heart Beat
TTITLE2=Sports Wear
TTITLE3=鉄の街
TTITLE4=D.Johnston
TTITLE5=Ivy
TTITLE6=メロトロン
TTITLE7=Pumping on the Radio
TTITLE8=Rhythm Drowner
TTITLE9=2人のためのマズルカ
EXTD=YEAR: 2004
EXTT0=
EXTT1=
EXTT2=
EXTT3=
EXTT4=
EXTT5=
EXTT6=
EXTT7=
EXTT8=
EXTT9=
PLAYORDER=
